<svg xmlns="http://www.w3.org/2000/svg" width="83" height="37" viewBox="0 0 83 37">
    <g fill="#2CBF9D" fill-rule="nonzero">
        <path d="M53.028 16.713c-.202-2.708 1.081-5.304 3.324-6.722a6.807 6.807 0 0 1 7.307 0c2.242 1.418 3.526 4.014 3.324 6.722a7.644 7.644 0 0 1-1.926 5.388 7.16 7.16 0 0 1-5.052 2.4 8.255 8.255 0 0 1-5.764-1.832v4.188c1.638 1.274 3.41 1.553 5.764 1.553 2.959-.045 5.78-1.303 7.84-3.497 2.061-2.193 3.194-5.143 3.15-8.2.123-4.141-1.945-8.024-5.398-10.132a10.697 10.697 0 0 0-11.194 0c-3.453 2.108-5.52 5.99-5.398 10.132v18.21c0 1.147.9 2.077 2.012 2.077 1.11 0 2.01-.93 2.01-2.078V16.713zM33.999 16.505a11.436 11.436 0 0 1-3.16 8.067A11.069 11.069 0 0 1 22.988 28a11.07 11.07 0 0 1-7.838-3.44A11.437 11.437 0 0 1 12 16.496C11.915 10.237 16.833 5.092 22.99 5a11.069 11.069 0 0 1 7.852 3.432A11.437 11.437 0 0 1 34 16.505zm-11.01-7.66a7.207 7.207 0 0 0-5.05 2.36 7.446 7.446 0 0 0-1.926 5.3 7.446 7.446 0 0 0 1.926 5.3 7.207 7.207 0 0 0 5.05 2.36 7.207 7.207 0 0 0 5.051-2.36 7.446 7.446 0 0 0 1.926-5.3 7.446 7.446 0 0 0-1.926-5.3 7.207 7.207 0 0 0-5.05-2.36z"/>
        <path d="M52.995 16.5c.123 4.066-1.945 7.878-5.398 9.948a10.866 10.866 0 0 1-11.194 0c-3.453-2.07-5.52-5.882-5.398-9.948-.123-4.066 1.945-7.878 5.398-9.948a10.866 10.866 0 0 1 11.194 0c3.453 2.07 5.52 5.882 5.398 9.948zM41.953 8.855a7.214 7.214 0 0 0-5.051 2.355 7.423 7.423 0 0 0-1.926 5.29 7.423 7.423 0 0 0 1.926 5.29 7.214 7.214 0 0 0 5.051 2.355 7.214 7.214 0 0 0 5.052-2.355 7.423 7.423 0 0 0 1.926-5.29 7.423 7.423 0 0 0-1.926-5.29 7.214 7.214 0 0 0-5.052-2.355zM22 24.169V28H11.062C4.328 28 0 24.169 0 17.65V1.905A1.977 1.977 0 0 1 .635.508c.39-.359.906-.54 1.43-.503a1.912 1.912 0 0 1 1.432.503c.39.358.619.863.634 1.397V17.65c0 3.884 2.2 6.53 6.931 6.53L22 24.168zM77 5v12h-2.19V7.147H72L72.705 5zM83 5v12h-2.19V7.147H78L78.705 5z"/>
    </g>
</svg>
